<?xml version="1.0" encoding="UTF-8"?>
<svg version="1.1" xmlns="http://www.w3.org/2000/svg" width="500" height="500">
<path d="M0 0 C1.0626709 0.01466309 2.1253418 0.02932617 3.22021484 0.04443359 C28.22696173 0.64028414 51.28316289 9.85350163 68.9375 27.875 C83.07899139 44.22296522 87.37899741 63.99998194 87.5 85.0625 C87.50483398 85.86268555 87.50966797 86.66287109 87.51464844 87.48730469 C87.49999378 92.5557234 87.09830155 97.42031307 86.375 102.4375 C87.365 102.7675 88.355 103.0975 89.375 103.4375 C89.375 105.7475 89.375 108.0575 89.375 110.4375 C87.725 110.7675 86.075 111.0975 84.375 111.4375 C84.23964844 112.118125 84.10429687 112.79875 83.96484375 113.5 C80.60982546 128.60762726 74.39043687 140.75282365 64.375 152.4375 C63.71242188 153.22769531 63.04984375 154.01789063 62.3671875 154.83203125 C57.18799229 160.79318338 51.56734365 166.34212174 46 171.9375 C45.20207031 172.74018311 44.40414063 173.54286621 43.58203125 174.36987305 C42.82535156 175.12437744 42.06867188 175.87888184 41.2890625 176.65625 C40.6079541 177.33623047 39.9268457 178.01621094 39.22509766 178.71679688 C37.375 180.4375 37.375 180.4375 34.375 182.4375 C33.93110323 185.09237492 33.93110323 185.09237492 34.02929688 188.24511719 C34.03110962 189.46539612 34.03292236 190.68567505 34.03479004 191.94293213 C34.05361018 193.29009165 34.07328931 194.6372394 34.09375 195.984375 C34.1051154 197.38636891 34.11597053 198.78836704 34.12634277 200.19036865 C34.25837313 213.53668528 34.87654129 226.85957627 35.5502224 240.18753529 C36.83888893 265.70693439 37.69658764 291.19704102 37.75 316.75 C37.76123901 318.62721741 37.76123901 318.62721741 37.77270508 320.5423584 C37.79024216 324.06625925 37.78603978 327.58937363 37.7734375 331.11328125 C37.77938934 332.13511002 37.78534119 333.15693878 37.79147339 334.20973206 C37.73305071 340.20045165 37.33580706 346.09531876 34.375 351.4375 C31.5041042 354.00447804 29.69323686 354.8122 25.8568573 354.80499268 C24.95589325 354.81056183 24.0549292 354.81613098 23.12666321 354.8218689 C22.14537949 354.81265411 21.16409576 354.80343933 20.15307617 354.79394531 C18.59363281 354.79701187 18.59363281 354.79701187 17.00268555 354.80014038 C13.55760222 354.80315341 10.11299546 354.78464157 6.66796875 354.765625 C4.26581439 354.76256558 1.86365826 354.76069085 -0.53849792 354.75994873 C-5.58326981 354.75534088 -10.62788252 354.74090627 -15.67260742 354.71875 C-22.10335255 354.69063458 -28.53397149 354.67955507 -34.96477222 354.6750679 C-41.12887446 354.66987642 -47.2929458 354.65534724 -53.45703125 354.640625 C-54.61794596 354.63874428 -55.77886066 354.63686356 -56.97495461 354.63492584 C-68.23980833 354.61137798 -79.43873703 354.5431959 -90.67405701 353.6663208 C-97.18822428 353.16120194 -103.71951666 353.19349661 -110.25 353.1875 C-111.42450714 353.18598938 -111.42450714 353.18598938 -112.6227417 353.18444824 C-133.68639344 353.20229657 -154.6364482 354.79749106 -175.625 356.4375 C-176.73883057 356.52424988 -177.85266113 356.61099976 -179.00024414 356.70037842 C-194.58289628 357.91513232 -194.58289628 357.91513232 -210.16259766 359.16699219 C-211.21042419 359.25155167 -212.25825073 359.33611115 -213.33782959 359.42323303 C-215.2937892 359.58125107 -217.24957488 359.7414441 -219.20513916 359.90428162 C-229.10220717 360.69986787 -229.10220717 360.69986787 -233.625 360.4375 C-235.91335203 358.14914797 -235.94342873 357.55699344 -236.2578125 354.45703125 C-236.34192383 353.63638184 -236.42603516 352.81573242 -236.51269531 351.97021484 C-236.59100586 351.07254395 -236.66931641 350.17487305 -236.75 349.25 C-236.8334668 348.3007666 -236.91693359 347.3515332 -237.00292969 346.37353516 C-238.44972671 328.40667831 -237.50077685 310.52155437 -236.61737061 292.55218506 C-235.34352489 266.6326682 -234.43723701 240.7020843 -233.71862793 214.76147461 C-233.63146397 211.66698356 -233.53769707 208.57276436 -233.44238281 205.47851562 C-233.31684444 201.28204047 -233.22322476 197.08633666 -233.16265869 192.88842773 C-233.13799481 191.44696949 -233.10333652 190.00563944 -233.05755615 188.56469727 C-232.78857713 179.74430553 -233.56743031 174.89412929 -239.625 168.4375 C-243.625 162.34218929 -243.625 162.34218929 -243.625 159.4375 C-244.800625 159.251875 -244.800625 159.251875 -246 159.0625 C-248.625 158.4375 -248.625 158.4375 -250.625 156.4375 C-250.88450554 153.58293911 -251.04632012 150.79774503 -251.125 147.9375 C-251.26408661 143.07765037 -251.54538343 138.4909841 -252.63671875 133.7421875 C-254.03525057 127.21232449 -253.95471845 120.71570897 -253.9375 114.0625 C-253.95361328 112.825 -253.96972656 111.5875 -253.98632812 110.3125 C-253.99271092 98.18519449 -252.09263617 86.32638339 -244.625 76.4375 C-242.63892598 74.48224254 -240.58972594 72.60777535 -238.53417969 70.72583008 C-230.49214978 63.74372211 -230.49214978 63.74372211 -227.2043457 54.02050781 C-227.18036726 51.14448517 -227.37477246 48.3012152 -227.625 45.4375 C-226.625 44.4375 -226.625 44.4375 -223.75 44.1875 C-220.625 44.4375 -220.625 44.4375 -218.75 45.9375 C-218.37875 46.4325 -218.0075 46.9275 -217.625 47.4375 C-217.00625 46.7775 -216.3875 46.1175 -215.75 45.4375 C-213.625 43.4375 -213.625 43.4375 -211.625 43.4375 C-211.295 42.1175 -210.965 40.7975 -210.625 39.4375 C-211.40746094 39.37691406 -212.18992188 39.31632812 -212.99609375 39.25390625 C-214.00800781 39.17011719 -215.01992187 39.08632812 -216.0625 39 C-217.07183594 38.91878906 -218.08117187 38.83757812 -219.12109375 38.75390625 C-221.625 38.4375 -221.625 38.4375 -222.625 37.4375 C-222.75 33.9375 -222.75 33.9375 -222.625 30.4375 C-220.44697969 28.25947969 -215.40132387 28.6137064 -212.34765625 28.27539062 C-205.30288134 27.42420466 -201.83357946 26.13790677 -197.3125 20.625 C-193.40913369 16.16400993 -189.96138883 13.00378421 -184.625 10.4375 C-183.738125 10.00824219 -182.85125 9.57898437 -181.9375 9.13671875 C-163.76485572 1.27890445 -142.66186218 0.45045576 -123.625 5.4375 C-122.36318855 5.97602603 -121.10664734 6.52705555 -119.85546875 7.08984375 C-114.48579222 9.19947685 -109.24179661 8.30624136 -103.625 7.6875 C-101.54184058 7.48259907 -99.45850279 7.27950445 -97.375 7.078125 C-96.28590332 6.97137451 -95.19680664 6.86462402 -94.07470703 6.75463867 C-84.06993323 5.83487921 -74.11284532 5.37922143 -64.0703125 5.26171875 C-63.14941833 5.24970428 -62.22852417 5.23768982 -61.27972412 5.22531128 C-57.48741429 5.17713557 -53.6954233 5.12945878 -49.90283203 5.11157227 C-39.17374813 5.05154554 -29.23041628 4.46410028 -18.79901123 1.86587524 C-12.49099466 0.31036494 -6.50400309 -0.14881587 0 0 Z M14.375 10.4375 C14.81650391 11.36336914 15.25800781 12.28923828 15.71289062 13.24316406 C17.82198367 18.18219899 18.85691377 23.30979329 19.96875 28.546875 C20.20095749 29.61969727 20.43316498 30.69251953 20.67240906 31.79785156 C21.41644091 35.25905481 22.14709299 38.72287212 22.875 42.1875 C23.12311432 43.35768677 23.37122864 44.52787354 23.62686157 45.73352051 C27.18168313 62.56792777 30.32584771 79.23445076 31.375 96.4375 C32.62410156 96.27636719 33.87320312 96.11523438 35.16015625 95.94921875 C40.71569505 95.33531704 46.22747898 95.25368648 51.8125 95.25 C52.78509766 95.23775391 53.75769531 95.22550781 54.75976562 95.21289062 C62.63216162 95.19711428 69.77525345 96.51514125 77.375 98.4375 C81.2646647 78.01676034 76.40210502 57.09505533 64.9375 39.9375 C56.24421776 28.42998449 45.89107514 21.74248087 32.75 16.125 C31.96262451 15.78726563 31.17524902 15.44953125 30.36401367 15.1015625 C25.09577507 12.92986343 19.96674446 11.53687491 14.375 10.4375 Z M-179.625 19.4375 C-175.82173313 20.70525562 -173.68597811 20.04667727 -169.76171875 19.2578125 C-168.75731499 19.05948318 -168.75731499 19.05948318 -167.73262024 18.85714722 C-165.59108176 18.43274923 -163.45182232 17.99791813 -161.3125 17.5625 C-159.18347579 17.13655044 -157.05403709 16.71272754 -154.92451477 16.28927612 C-152.98374017 15.90216462 -151.04396524 15.51005129 -149.10424805 15.11767578 C-145.95132401 14.50129473 -142.79660777 13.94780375 -139.625 13.4375 C-150.8153335 6.80619126 -168.62869102 15.20405417 -179.625 19.4375 Z M-69.67578125 14.0234375 C-70.49700974 14.08528229 -71.31823822 14.14712708 -72.16435242 14.21084595 C-73.88290589 14.34180965 -75.60131561 14.47467265 -77.31958008 14.609375 C-79.94750689 14.81327644 -82.57617686 15.00444003 -85.20507812 15.1953125 C-86.88287275 15.32474223 -88.56060957 15.45492388 -90.23828125 15.5859375 C-91.02060623 15.64123627 -91.80293121 15.69653503 -92.60896301 15.75350952 C-96.34526371 16.05954568 -99.4278707 16.38647147 -102.625 18.4375 C-102.1403125 18.86417969 -101.655625 19.29085937 -101.15625 19.73046875 C-92.01684678 28.25471983 -86.3904264 39.00505878 -81.625 50.4375 C-80.90570313 49.71820313 -80.18640625 48.99890625 -79.4453125 48.2578125 C-71.53515625 40.34765625 -71.53515625 40.34765625 -63.625 32.4375 C-64.285 32.1075 -64.945 31.7775 -65.625 31.4375 C-66.13752722 26.07508833 -66.13752722 26.07508833 -63.83203125 23.20703125 C-63.04183594 22.56121094 -62.25164062 21.91539063 -61.4375 21.25 C-60.66019531 20.59644531 -59.88289063 19.94289063 -59.08203125 19.26953125 C-56.625 17.4375 -56.625 17.4375 -53.82421875 15.76171875 C-53.09847656 15.32472656 -52.37273437 14.88773438 -51.625 14.4375 C-51.625 14.1075 -51.625 13.7775 -51.625 13.4375 C-57.6791316 13.38114755 -63.64073671 13.55961803 -69.67578125 14.0234375 Z M-16.4375 19.4375 C-17.36876709 19.75146729 -18.30003418 20.06543457 -19.25952148 20.38891602 C-41.5982932 28.14902218 -65.63380917 41.76571799 -77.921875 62.640625 C-79.00938991 66.96651762 -78.29156648 70.98745312 -77.75 75.375 C-76.84863712 83.77985121 -76.21915632 91.97896272 -76.625 100.4375 C-76.66608887 101.37223145 -76.70717773 102.30696289 -76.74951172 103.27001953 C-77.6503403 121.96293212 -79.6890978 138.72573417 -89.12158203 155.13916016 C-90.76283066 158.08841292 -91.62988999 160.11598326 -91.578125 163.51953125 C-86.89797216 177.84770408 -74.33464096 187.51389431 -61.625 194.4375 C-52.7310115 198.60214541 -43.51457111 201.62902338 -33.625 201.4375 C-33.06483252 200.02804634 -32.52751498 198.6094969 -32 197.1875 C-31.69835937 196.39859375 -31.39671875 195.6096875 -31.0859375 194.796875 C-30.51429491 191.87084006 -31.00729539 190.89212434 -32.625 188.4375 C-33.429375 187.509375 -34.23375 186.58125 -35.0625 185.625 C-42.32425032 177.14224741 -42.40828797 166.06431779 -41.84277344 155.45507812 C-40.45393246 142.58805811 -26.89956421 130.65624233 -17.41503906 122.89770508 C-5.09468591 113.11312235 9.28233934 106.27991723 23.375 99.4375 C22.17499953 83.19611426 19.07204777 67.35539928 15.78503418 51.43353271 C15.37669935 49.4457724 14.97506765 47.4567636 14.57519531 45.46728516 C13.81783897 41.72425136 13.03821415 37.98664361 12.25 34.25 C12.02086914 33.11626953 11.79173828 31.98253906 11.55566406 30.81445312 C11.3284668 29.76837891 11.10126953 28.72230469 10.8671875 27.64453125 C10.67495605 26.7316333 10.48272461 25.81873535 10.28466797 24.87817383 C9.1741844 21.89870409 7.81425787 20.45262454 5.375 18.4375 C-2.88885927 15.43246027 -8.40705053 16.72510481 -16.4375 19.4375 Z M-129.82421875 20.49609375 C-130.50047806 20.6047023 -131.17673737 20.71331085 -131.87348938 20.82521057 C-133.29495672 21.05449605 -134.71611148 21.28572694 -136.13696289 21.51879883 C-138.31507144 21.87542102 -140.49432786 22.2242617 -142.67382812 22.57226562 C-144.05736658 22.79641308 -145.44083282 23.02100686 -146.82421875 23.24609375 C-148.08065186 23.45032959 -149.33708496 23.65456543 -150.6315918 23.86499023 C-153.53672431 24.28034878 -153.53672431 24.28034878 -155.625 25.4375 C-155.955 26.4275 -156.285 27.4175 -156.625 28.4375 C-158.91015625 29.60546875 -158.91015625 29.60546875 -161.6875 30.625 C-163.06615234 31.14126953 -163.06615234 31.14126953 -164.47265625 31.66796875 C-165.18292969 31.92191406 -165.89320313 32.17585938 -166.625 32.4375 C-166.60928955 33.10692627 -166.5935791 33.77635254 -166.57739258 34.46606445 C-166.5142275 37.5606203 -166.47575436 40.6550398 -166.4375 43.75 C-166.41236328 44.80251953 -166.38722656 45.85503906 -166.36132812 46.93945312 C-166.1240537 72.64418288 -182.91557018 95.84985779 -197.45507812 115.80615234 C-198.54531892 117.32639212 -199.58728743 118.88093114 -200.625 120.4375 C-200.13 120.9325 -200.13 120.9325 -199.625 121.4375 C-199.89306789 127.22212283 -201.38442013 129.95988698 -205.25 134.1875 C-209.49229479 138.93477573 -212.8477781 143.76840461 -215.95703125 149.35546875 C-217.625 151.4375 -217.625 151.4375 -220.32421875 152.23828125 C-221.08347656 152.30402344 -221.84273437 152.36976563 -222.625 152.4375 C-222.90872765 154.81878563 -223.15854845 157.1966839 -223.3671875 159.5859375 C-223.53012329 161.38810612 -223.73804158 163.18726558 -224.0078125 164.9765625 C-224.41466194 169.1106778 -224.23271318 171.52043056 -221.8984375 175.04296875 C-219.59157175 177.66296576 -217.17589791 180.05585598 -214.625 182.4375 C-213.72587891 183.37916016 -213.72587891 183.37916016 -212.80859375 184.33984375 C-202.96206882 194.05420056 -188.99027364 199.23302732 -175.375 199.59765625 C-170.54685014 199.56270945 -166.20168104 198.65380161 -161.5625 197.375 C-160.74031982 197.15021973 -159.91813965 196.92543945 -159.07104492 196.69384766 C-139.01463149 190.98112514 -122.197701 180.33507013 -107.625 165.4375 C-106.53650757 164.34477783 -106.53650757 164.34477783 -105.42602539 163.22998047 C-102.99691275 159.46365399 -103.56508657 157.610576 -104.35546875 153.25 C-105.66535558 145.03792799 -105.96461387 137.0348247 -105.94067383 128.72851562 C-105.93750114 126.43832214 -105.96114945 124.14941175 -105.98632812 121.859375 C-106.04626701 108.26980131 -104.29112806 95.36020668 -99.3125 82.625 C-99.0134375 81.82731201 -98.714375 81.02962402 -98.40625 80.20776367 C-96.31643833 74.78318132 -93.83119079 69.80493365 -90.59375 64.95703125 C-88.93024877 60.63058652 -89.80200531 56.60089627 -91.40283203 52.39282227 C-92.35067189 50.32655131 -93.37169805 48.32030839 -94.4375 46.3125 C-94.95280273 45.29736328 -94.95280273 45.29736328 -95.47851562 44.26171875 C-100.66465184 34.20080909 -107.09011718 24.43927915 -117.625 19.4375 C-121.78534635 19.18524538 -125.72160114 19.83466899 -129.82421875 20.49609375 Z M-196.625 35.4375 C-196.295 36.0975 -195.965 36.7575 -195.625 37.4375 C-194.635 36.4475 -193.645 35.4575 -192.625 34.4375 C-194.6995356 34.2884288 -194.6995356 34.2884288 -196.625 35.4375 Z M-176.625 37.4375 C-178.26830561 39.08080561 -177.98778346 41.23457106 -178.25 43.5 C-179.35083199 50.64680766 -182.13102776 56.67394314 -185.1640625 63.1640625 C-186.76085116 66.14445174 -186.76085116 66.14445174 -186.625 68.4375 C-184.99873596 69.81982443 -183.3324998 71.15687515 -181.625 72.4375 C-180.64040929 70.0437703 -179.66221297 67.6477493 -178.6875 65.25 C-178.40970703 64.57646484 -178.13191406 63.90292969 -177.84570312 63.20898438 C-175.44311629 57.27488435 -174.47427422 52.20019733 -174.4375 45.75 C-174.42332031 44.61175781 -174.40914062 43.47351563 -174.39453125 42.30078125 C-174.32428929 39.30614745 -174.32428929 39.30614745 -176.625 37.4375 Z M-203.625 54.4375 C-203.625 55.4275 -203.625 56.4175 -203.625 57.4375 C-202.965 56.4475 -202.305 55.4575 -201.625 54.4375 C-202.285 54.4375 -202.945 54.4375 -203.625 54.4375 Z M-86.625 76.4375 C-96.92835895 99.87341893 -100.49264319 122.18594532 -96.625 147.4375 C-94.25586278 145.31182655 -93.09450441 143.60591654 -92.08984375 140.59375 C-91.83871826 139.84762451 -91.58759277 139.10149902 -91.32885742 138.33276367 C-91.07595947 137.54232666 -90.82306152 136.75188965 -90.5625 135.9375 C-90.29864502 135.12450439 -90.03479004 134.31150879 -89.76293945 133.47387695 C-84.00706537 115.329066 -83.08820503 95.28226264 -85.625 76.4375 C-85.955 76.4375 -86.285 76.4375 -86.625 76.4375 Z M-235.625 82.4375 C-241.45603745 90.47487595 -245.56258273 100.35848565 -244.625 110.4375 C-241.93444629 107.15889113 -240.24571219 103.73047995 -238.5 99.875 C-237.98179687 98.73933594 -237.46359375 97.60367188 -236.9296875 96.43359375 C-235.36313461 92.83615043 -234.4986674 90.14378863 -234.5625 86.25 C-234.583125 84.991875 -234.60375 83.73375 -234.625 82.4375 C-234.955 82.4375 -235.285 82.4375 -235.625 82.4375 Z M-208.625 95.4375 C-209.14449219 96.34371094 -209.66398437 97.24992187 -210.19921875 98.18359375 C-210.53501953 98.76906982 -210.87082031 99.3545459 -211.21679688 99.95776367 C-211.95179551 101.24384752 -212.6835313 102.53180119 -213.41210938 103.8215332 C-214.97617652 106.58677892 -216.54561553 109.31455778 -218.26953125 111.984375 C-221.95167424 117.79940197 -222.19698948 122.63718066 -221.625 129.4375 C-213.37944901 121.69167937 -207.44055801 112.63945724 -202.625 102.4375 C-202.625 101.7775 -202.625 101.1175 -202.625 100.4375 C-203.945 100.4375 -205.265 100.4375 -206.625 100.4375 C-206.955 98.7875 -207.285 97.1375 -207.625 95.4375 C-207.955 95.4375 -208.285 95.4375 -208.625 95.4375 Z M32.375 107.4375 C32.30273498 109.29037502 32.2911878 111.14583878 32.3125 113 C32.32152344 114.01191406 32.33054687 115.02382812 32.33984375 116.06640625 C32.35144531 116.84886719 32.36304688 117.63132812 32.375 118.4375 C35.81024004 117.16140281 38.75502721 115.68543093 41.80078125 113.65234375 C42.59677734 113.12189453 43.39277344 112.59144531 44.21289062 112.04492188 C45.43782227 111.21831055 45.43782227 111.21831055 46.6875 110.375 C47.52345703 109.82005859 48.35941406 109.26511719 49.22070312 108.69335938 C52.33725759 106.62099177 52.33725759 106.62099177 55.375 104.4375 C55.375 104.1075 55.375 103.7775 55.375 103.4375 C43.12307024 102.7093676 43.12307024 102.7093676 32.375 107.4375 Z M18.375 112.4375 C16.73701324 114.87302849 15.50605044 117.47678719 14.25 120.125 C13.72986328 121.16817383 13.72986328 121.16817383 13.19921875 122.23242188 C11.08900078 126.56200703 9.56169364 130.77024616 8.375 135.4375 C9.99907159 134.53907742 11.61890755 133.6322972 13.21875 132.69140625 C14.73908163 131.80730036 16.28375918 130.96442758 17.84375 130.15234375 C22.5172475 127.66409298 22.5172475 127.66409298 24.98046875 123.26171875 C25.00028826 120.90319749 24.78057977 118.75923723 24.375 116.4375 C24.21 115.261875 24.045 114.08625 23.875 112.875 C23.71 112.070625 23.545 111.26625 23.375 110.4375 C21.21944052 110.4375 20.16667754 111.22923347 18.375 112.4375 Z M70.375 119.4375 C64.96962754 123.38313284 63.15078971 125.88927545 61.375 132.4375 C59.70876191 134.84701097 57.9128301 137.07987638 56.03125 139.32421875 C54.48461774 141.29763396 53.40318893 143.16006153 52.375 145.4375 C55.88255321 145.17813867 57.15872055 144.65896423 59.65625 142.1015625 C64.36607921 135.65042319 68.96964086 129.15123793 71.375 121.4375 C71.045 120.7775 70.715 120.1175 70.375 119.4375 Z M-231.625 120.4375 C-238.45651191 132.8097998 -238.45651191 132.8097998 -238.625 146.4375 C-237.47275972 145.50788578 -236.32840824 144.5684875 -235.1875 143.625 C-234.54941406 143.10292969 -233.91132813 142.58085937 -233.25390625 142.04296875 C-231.23682594 140.05491118 -230.67964429 138.35258619 -230.51147461 135.53637695 C-230.51671143 134.83988037 -230.52194824 134.14338379 -230.52734375 133.42578125 C-230.53056641 132.66845703 -230.53378906 131.91113281 -230.53710938 131.13085938 C-230.54967773 129.95233398 -230.54967773 129.95233398 -230.5625 128.75 C-230.56701172 127.95271484 -230.57152344 127.15542969 -230.57617188 126.33398438 C-230.5879415 124.36845743 -230.60587652 122.40296915 -230.625 120.4375 C-230.955 120.4375 -231.285 120.4375 -231.625 120.4375 Z M-14.25 133.375 C-14.78761963 133.87572021 -15.32523926 134.37644043 -15.87915039 134.89233398 C-24.1710496 142.70063208 -32.50600403 150.60452818 -34.1875 162.375 C-33.85132608 167.6561839 -31.61910692 172.5946689 -29.625 177.4375 C-28.635 177.4375 -27.645 177.4375 -26.625 177.4375 C-26.2846875 176.37015625 -25.944375 175.3028125 -25.59375 174.203125 C-15.01821355 141.49248574 -15.01821355 141.49248574 -7.65625 131.8984375 C-6.43277227 130.46321797 -6.43277227 130.46321797 -6.625 128.4375 C-9.96289027 128.4375 -11.91988432 131.19747913 -14.25 133.375 Z M36.375 128.4375 C36.045 129.0975 35.715 129.7575 35.375 130.4375 C36.365 130.1075 37.355 129.7775 38.375 129.4375 C37.715 129.1075 37.055 128.7775 36.375 128.4375 Z M33.375 130.4375 C33.705 131.0975 34.035 131.7575 34.375 132.4375 C34.705 131.7775 35.035 131.1175 35.375 130.4375 C34.715 130.4375 34.055 130.4375 33.375 130.4375 Z M23.375 137.4375 C15.269412 143.20333064 8.21583878 149.18802704 1.375 156.4375 C3.40794404 157.70562124 3.40794404 157.70562124 6.0078125 156.9453125 C10.61057213 154.88421596 13.67462331 151.81165742 17.25 148.3125 C17.93835938 147.65378906 18.62671875 146.99507812 19.3359375 146.31640625 C21.02413253 144.69855268 22.70324995 143.07231234 24.375 141.4375 C24.045 140.1175 23.715 138.7975 23.375 137.4375 Z M-232.625 155.4375 C-232.955 156.0975 -233.285 156.7575 -233.625 157.4375 C-232.965 158.0975 -232.305 158.7575 -231.625 159.4375 C-231.955 158.1175 -232.285 156.7975 -232.625 155.4375 Z M-99.625 171.4375 C-100.9553125 172.860625 -100.9553125 172.860625 -102.3125 174.3125 C-120.99313543 192.91796185 -147.42061512 207.46699005 -174.1875 207.625 C-192.55654694 207.43020629 -205.41684503 202.86393788 -219.625 191.4375 C-220.95406826 190.43183835 -222.2856261 189.42939482 -223.625 188.4375 C-224.36476338 193.76387055 -224.78059496 198.97549106 -224.8359375 204.35546875 C-224.86231231 205.98153322 -224.88911197 207.60759083 -224.91625977 209.23364258 C-224.92956329 210.10566315 -224.94286682 210.97768372 -224.95657349 211.87612915 C-225.21526706 228.25126858 -225.71208231 244.61267658 -226.35546875 260.9765625 C-226.3889315 261.82769182 -226.42239426 262.67882114 -226.45687103 263.55574226 C-226.79721632 272.17710488 -227.14716112 280.79805772 -227.50505733 289.4187088 C-227.64093238 292.7030728 -227.77447663 295.98752969 -227.90777016 299.27199936 C-228.00033668 301.52634857 -228.09663473 303.78051595 -228.19316101 306.03469849 C-229.05037715 324.77733656 -229.05037715 324.77733656 -227.625 343.4375 C-227.52960938 344.1284375 -227.43421875 344.819375 -227.3359375 345.53125 C-227.10860616 347.16803565 -226.86843151 348.80303131 -226.625 350.4375 C-218.79328176 350.60144442 -211.09292541 350.08263862 -203.29296875 349.4140625 C-201.32012893 349.25192916 -199.34728698 349.08981964 -197.37436485 348.92869091 C-195.28603487 348.7580361 -193.19781146 348.58611449 -191.10958862 348.41415405 C-160.29560496 345.88582184 -129.53639877 344.27805068 -98.625 343.4375 C-98.295 341.4575 -97.965 339.4775 -97.625 337.4375 C-91.01731964 336.71666214 -87.90071567 338.06293765 -82.60546875 342.02734375 C-78.08893849 345.24325583 -73.18080918 344.62965953 -67.875 344.625 C-66.93503174 344.62419434 -65.99506348 344.62338867 -65.02661133 344.62255859 C-55.62672215 344.54089701 -46.35434678 343.80684158 -37.25 341.3125 C-32.949188 340.27437297 -29.02126693 340.25432221 -24.625 340.4375 C-24.295 342.0875 -23.965 343.7375 -23.625 345.4375 C-7.455 345.4375 8.715 345.4375 25.375 345.4375 C28.27372418 339.96836277 28.27372418 339.96836277 28.77905273 334.55322266 C28.7978373 333.14320229 28.7978373 333.14320229 28.81700134 331.70469666 C28.81422684 330.68066238 28.81145233 329.65662811 28.80859375 328.6015625 C28.81863182 326.94012962 28.81863182 326.94012962 28.82887268 325.24513245 C28.84238812 321.5173441 28.82919286 317.79026903 28.8125 314.0625 C28.81145264 312.77501862 28.81040527 311.48753723 28.80932617 310.16104126 C28.76501082 270.2224305 26.44135152 230.31173072 24.375 190.4375 C21.4103327 191.60742946 18.57811699 192.79040306 15.80078125 194.35546875 C8.30263552 198.5002185 0.79211263 202.29898053 -7.1875 205.4375 C-7.91219482 205.72778076 -8.63688965 206.01806152 -9.38354492 206.31713867 C-14.14917146 208.13285061 -18.54451919 208.98031388 -23.625 209.4375 C-23.625 210.0975 -23.625 210.7575 -23.625 211.4375 C-25.10406892 211.46439216 -26.58327483 211.48384621 -28.0625 211.5 C-28.88621094 211.51160156 -29.70992187 211.52320313 -30.55859375 211.53515625 C-32.625 211.4375 -32.625 211.4375 -33.625 210.4375 C-35.7692678 210.1423978 -37.9143604 209.85233829 -40.06274414 209.58886719 C-58.72974289 207.23492931 -75.43169222 200.3540704 -88.625 186.4375 C-91.12160875 183.20426807 -93.37105529 179.84177401 -95.625 176.4375 C-96.93770834 174.75454059 -98.25860658 173.0771721 -99.625 171.4375 Z M6.74609375 183.96875 C6.10800781 184.6184375 5.46992188 185.268125 4.8125 185.9375 C4.17183594 186.5871875 3.53117187 187.236875 2.87109375 187.90625 C2.37738281 188.4115625 1.88367188 188.916875 1.375 189.4375 C2.365 189.9325 2.365 189.9325 3.375 190.4375 C5.40644641 189.50303465 7.41033587 188.50525224 9.375 187.4375 C9.375 185.7875 9.375 184.1375 9.375 182.4375 C8.12382927 182.32334524 8.12382927 182.32334524 6.74609375 183.96875 Z M-6.625 192.4375 C-6.295 193.0975 -5.965 193.7575 -5.625 194.4375 C-4.635 193.7775 -3.645 193.1175 -2.625 192.4375 C-3.945 192.4375 -5.265 192.4375 -6.625 192.4375 Z " fill="#000000" transform="translate(329.625,26.5625)"/>
<path d="M0 0 C3.5 0.125 3.5 0.125 4.5 1.125 C4.57205511 2.81108966 4.58386068 4.50000659 4.5625 6.1875 C4.55347656 7.10660156 4.54445313 8.02570313 4.53515625 8.97265625 C4.52355469 9.68292969 4.51195312 10.39320313 4.5 11.125 C5.32636963 10.96346436 6.15273926 10.80192871 7.00415039 10.63549805 C10.83294271 10.07638046 14.57433809 9.96308492 18.43359375 9.95703125 C19.18858658 9.95370285 19.94357941 9.95037445 20.72145081 9.94694519 C22.31746822 9.94190058 23.9134961 9.9395361 25.50952148 9.93969727 C27.89911368 9.93753474 30.28822514 9.91941971 32.67773438 9.90039062 C58.12624011 9.80503091 58.12624011 9.80503091 65.5 14.125 C65.54241723 16.45794775 65.54092937 18.79202567 65.5 21.125 C64.5 22.125 64.5 22.125 61.1875 22.3125 C57.83479121 22.28363828 54.8109437 21.80946844 51.53515625 21.12109375 C42.17638414 19.5137284 32.71196082 19.91340288 23.25 20 C21.32943176 20.01005194 19.40885842 20.01917386 17.48828125 20.02734375 C12.82539278 20.04917712 8.16275397 20.08358445 3.5 20.125 C3.17 24.745 2.84 29.365 2.5 34.125 C15.59701054 30.99945095 15.59701054 30.99945095 28.1875 26.3125 C32.94347119 24.17197851 36.31962339 23.62688686 41.5 24.125 C41.5 26.765 41.5 29.405 41.5 32.125 C35.16813634 35.8907926 28.51129841 38.24039134 21.5 40.375 C20.67016602 40.63297363 19.84033203 40.89094727 18.98535156 41.15673828 C13.17540207 42.87232848 7.54073125 43.72335563 1.5 44.125 C1.56058594 44.72449463 1.62117188 45.32398926 1.68359375 45.94165039 C1.95929578 48.68992245 2.22968543 51.43869302 2.5 54.1875 C2.59539062 55.13044922 2.69078125 56.07339844 2.7890625 57.04492188 C3.28225278 62.10012222 3.61270932 67.04603608 3.5 72.125 C4.51320313 71.7640625 5.52640625 71.403125 6.5703125 71.03125 C7.92170697 70.56201581 9.27327904 70.09329284 10.625 69.625 C11.62273437 69.26728516 11.62273437 69.26728516 12.640625 68.90234375 C16.6985737 67.50991037 20.15019995 66.66033293 24.5 67.125 C26.5 69.125 26.5 69.125 26.9375 72.0625 C26.793125 73.073125 26.64875 74.08375 26.5 75.125 C22.89513964 77.79033113 19.15518642 78.97232064 14.875 80.1875 C11.23350293 81.22495168 8.6640477 82.01563487 5.5 84.125 C2.69409764 84.55283066 0.3766685 84.35330702 -2.5 84.125 C-9.32543441 73.88684838 -7.69274952 56.01122039 -7.5 44.125 C-8.304375 44.145625 -9.10875 44.16625 -9.9375 44.1875 C-12.5 44.125 -12.5 44.125 -13.5 43.125 C-13.75 40.1875 -13.75 40.1875 -13.5 37.125 C-10.5 35.125 -10.5 35.125 -7.5 35.125 C-7.47314905 32.64576199 -7.45323453 30.1668116 -7.4375 27.6875 C-7.42912109 26.98044922 -7.42074219 26.27339844 -7.41210938 25.54492188 C-7.40346412 23.73806441 -7.44779989 21.93112397 -7.5 20.125 C-7.83 19.795 -8.16 19.465 -8.5 19.125 C-8.54080783 17.12541636 -8.54254356 15.12454746 -8.5 13.125 C-7.51 12.795 -6.52 12.465 -5.5 12.125 C-5.43941406 11.34253906 -5.37882813 10.56007813 -5.31640625 9.75390625 C-5.23261719 8.74199219 -5.14882812 7.73007812 -5.0625 6.6875 C-4.98128906 5.67816406 -4.90007812 4.66882813 -4.81640625 3.62890625 C-4.32570438 -0.25430234 -4.09056656 0.14609166 0 0 Z " fill="#000000" transform="translate(258.5,415.875)"/>
<path d="M0 0 C1.21816406 0.03480469 1.21816406 0.03480469 2.4609375 0.0703125 C3.68683594 0.09738281 3.68683594 0.09738281 4.9375 0.125 C5.87722656 0.15980469 5.87722656 0.15980469 6.8359375 0.1953125 C7.90396751 2.27597039 8.9663742 4.35908175 10.0234375 6.4453125 C10.34368896 7.0755835 10.66394043 7.70585449 10.99389648 8.35522461 C13.03003127 12.41882544 14.77828733 16.50624195 16.3984375 20.7578125 C17.85024825 24.42121497 18.91086422 26.66842101 22.1484375 28.9453125 C24.8359375 31.1953125 24.8359375 31.1953125 25.21484375 33.26171875 C25.2109375 35.5078125 25.2109375 35.5078125 24.8359375 39.1953125 C20.10498084 39.69330794 17.00850225 39.850131 13.1484375 36.8828125 C8.88698207 32.78637926 6.97004027 27.60483308 4.8359375 22.1953125 C4.23592333 20.79768914 3.63247887 19.40152577 3.0234375 18.0078125 C2.6315625 17.0796875 2.2396875 16.1515625 1.8359375 15.1953125 C1.31644531 15.94296875 0.79695313 16.690625 0.26171875 17.4609375 C-0.43566406 18.44578125 -1.13304687 19.430625 -1.8515625 20.4453125 C-2.87830078 21.90710938 -2.87830078 21.90710938 -3.92578125 23.3984375 C-7.15413935 27.43247659 -9.54842583 29.94021197 -14.7265625 30.7578125 C-18.1640625 30.1953125 -18.1640625 30.1953125 -20.4140625 28.1953125 C-21.83663875 25.75661036 -22.81580622 23.6332286 -23.7734375 21.0078125 C-24.03608398 20.29238281 -24.29873047 19.57695312 -24.56933594 18.83984375 C-24.7655957 18.29714844 -24.96185547 17.75445312 -25.1640625 17.1953125 C-25.46175537 17.91710693 -25.75944824 18.63890137 -26.06616211 19.38256836 C-27.40872612 22.6337178 -28.7550912 25.88327944 -30.1015625 29.1328125 C-30.57013672 30.26912109 -31.03871094 31.40542969 -31.52148438 32.57617188 C-31.96943359 33.65576172 -32.41738281 34.73535156 -32.87890625 35.84765625 C-33.29261475 36.84788818 -33.70632324 37.84812012 -34.13256836 38.87866211 C-35.1640625 41.1953125 -35.1640625 41.1953125 -36.1640625 42.1953125 C-39.6640625 42.3203125 -39.6640625 42.3203125 -43.1640625 42.1953125 C-44.1640625 41.1953125 -44.1640625 41.1953125 -44.5390625 37.8203125 C-44.45650858 33.13125002 -42.84765859 29.707036 -40.796875 25.546875 C-39.5137486 22.91308923 -38.31586917 20.28200784 -37.15625 17.59375 C-36.80691406 16.78663574 -36.45757812 15.97952148 -36.09765625 15.14794922 C-35.40107599 13.534055 -34.70826047 11.91852977 -34.01953125 10.30126953 C-33.69339844 9.55474121 -33.36726563 8.80821289 -33.03125 8.0390625 C-32.74362793 7.37068359 -32.45600586 6.70230469 -32.15966797 6.01367188 C-31.03575442 3.96097249 -30.00068671 2.65052209 -28.1640625 1.1953125 C-21.30531074 0.3243599 -21.30531074 0.3243599 -17.7890625 3.0078125 C-15.471646 7.55351409 -14.83284522 12.17064235 -14.1640625 17.1953125 C-13.5040625 17.1953125 -12.8440625 17.1953125 -12.1640625 17.1953125 C-11.8959375 16.47730469 -11.6278125 15.75929688 -11.3515625 15.01953125 C-10.15558113 12.17514135 -8.76048939 9.64590794 -7.1640625 7.0078125 C-6.6484375 6.14800781 -6.1328125 5.28820312 -5.6015625 4.40234375 C-2.90496064 0.26218056 -2.90496064 0.26218056 0 0 Z " fill="#000000" transform="translate(362.1640625,457.8046875)"/>
<path d="M0 0 C1.18142578 0.00966797 1.18142578 0.00966797 2.38671875 0.01953125 C4.3125 0.1875 4.3125 0.1875 5.3125 1.1875 C5.45365161 3.85808851 5.35497107 6.51182238 5.3125 9.1875 C4.343125 9.3525 3.37375 9.5175 2.375 9.6875 C-4.11787704 11.59716972 -9.08578037 16.3594057 -12.37109375 22.16015625 C-13.57774888 24.80932827 -14.68765783 27.4542631 -15.6875 30.1875 C-6.96515306 27.92615079 -0.93406734 22.16556991 3.953125 14.671875 C4.76301118 13.19846761 5.54334805 11.70795762 6.27734375 10.1953125 C7.43522519 7.94945944 8.63151592 6.07808309 10.3125 4.1875 C13.4375 3.875 13.4375 3.875 16.3125 4.1875 C18.24824712 6.12324712 17.45140112 9.04473086 17.50195312 11.62768555 C17.6826236 27.40876486 17.6826236 27.40876486 24.3125 41.1875 C24.45365161 43.85808851 24.35497107 46.51182238 24.3125 49.1875 C23.075 49.31125 21.8375 49.435 20.5625 49.5625 C19.51835937 49.66691406 19.51835937 49.66691406 18.453125 49.7734375 C16.3125 49.1875 16.3125 49.1875 14.21875 46.65625 C12.17338693 42.93435983 10.80773734 39.35364759 9.5625 35.3125 C9.34207031 34.62414062 9.12164062 33.93578125 8.89453125 33.2265625 C8.35881176 31.54952757 7.83445222 29.86887069 7.3125 28.1875 C6.55066406 29.00154297 6.55066406 29.00154297 5.7734375 29.83203125 C-0.81751505 36.68217856 -6.06988719 39.83082617 -15.625 40.4375 C-19.57029041 40.40755472 -22.28806619 39.22716029 -25.6875 37.1875 C-26.85302661 27.08626936 -24.27019054 19.49731016 -18.6875 11.1875 C-13.49246939 5.45148611 -8.11670787 -0.14757651 0 0 Z " fill="#000000" transform="translate(108.6875,446.8125)"/>
<path d="M0 0 C3.0625 -0.25 3.0625 -0.25 6 0 C6.33 0.33 6.66 0.66 7 1 C6.96702845 2.79245323 6.89766337 4.5842675 6.8125 6.375 C6.74275927 12.85313893 8.14882752 18.19359764 11 24 C11.66 24.66 12.32 25.32 13 26 C16.30650522 25.91063499 17.80723239 25.15725779 20.375 23.0625 C23.34687682 19.83908502 25.75202093 16.1894694 28.22265625 12.578125 C34.43902439 3.56097561 34.43902439 3.56097561 37 1 C39.9375 0.8125 39.9375 0.8125 43 1 C45.74219511 3.74219511 45.43925459 5.66090434 45.8125 9.5 C47.19114419 21.6817659 50.94180761 33.46619005 55 45 C51.37 45 47.74 45 44 45 C40.9164121 37.76951802 38.73796162 30.66283076 37 23 C36.34 23 35.68 23 35 23 C33.58031418 24.54339289 32.21381698 26.13595584 30.875 27.75 C26.44554879 32.75350808 22.6255113 36.26920361 15.8984375 37.33203125 C11.41658092 37.55864198 8.47088431 36.79599014 5 34 C-1.26164624 27.37002162 -2.48185658 21.01589642 -2.3125 12.25 C-2.31572266 11.40050781 -2.31894531 10.55101562 -2.32226562 9.67578125 C-2.26775085 3.40162628 -2.26775085 3.40162628 0 0 Z " fill="#000000" transform="translate(397,455)"/>
<path d="M0 0 C2.875 0.375 2.875 0.375 3.875 1.375 C3.80649048 4.30222502 3.6727951 7.20324045 3.5 10.125 C3.39814622 12.05199977 3.29797863 13.97908918 3.19921875 15.90625 C3.14556152 16.94910156 3.0919043 17.99195313 3.03662109 19.06640625 C2.10347072 38.16920658 1.70958912 57.25095733 1.875 76.375 C2.464021 76.28935791 3.05304199 76.20371582 3.65991211 76.11547852 C6.37722118 75.72128371 9.0948562 75.32938023 11.8125 74.9375 C12.73869141 74.80279297 13.66488281 74.66808594 14.61914062 74.52929688 C20.36158267 73.70319118 26.09472063 72.88245137 31.875 72.375 C32.875 73.375 32.875 73.375 32.97265625 75.22265625 C32.94010417 77.2734375 32.90755208 79.32421875 32.875 81.375 C28.27454642 83.08312473 23.79376156 83.95830787 18.9375 84.5 C18.20329834 84.5827417 17.46909668 84.6654834 16.71264648 84.75073242 C9.54996489 85.49859047 2.03913282 86.27902219 -5.125 85.375 C-8.63796536 80.10555197 -8.28685199 74.35018778 -8.25 68.1875 C-8.24734131 67.35379883 -8.24468262 66.52009766 -8.24194336 65.66113281 C-8.17945338 56.64675596 -7.93515847 47.63581995 -7.6875 38.625 C-7.6679425 37.89109039 -7.64838501 37.15718079 -7.62823486 36.40103149 C-7.5115898 32.10560412 -7.37409136 27.81160705 -7.20733643 23.51782227 C-7.15135006 22.06076571 -7.09920497 20.60355756 -7.05047607 19.14624023 C-6.97407078 16.96639647 -6.878268 14.7882061 -6.77734375 12.609375 C-6.69794556 10.70236816 -6.69794556 10.70236816 -6.61694336 8.75683594 C-5.91816177 3.95310263 -5.13822316 0.61658678 0 0 Z " fill="#000000" transform="translate(191.125,405.625)"/>
<path d="M0 0 C0.90105469 0.00902344 1.80210938 0.01804687 2.73046875 0.02734375 C3.41753906 0.03894531 4.10460937 0.05054688 4.8125 0.0625 C4.8125 2.7025 4.8125 5.3425 4.8125 8.0625 C4.05066406 8.37960937 3.28882813 8.69671875 2.50390625 9.0234375 C-6.73472287 13.1986981 -14.30707107 18.81010131 -18.3125 28.4375 C-19.33978116 32.41883341 -19.33978116 32.41883341 -18.1875 36.0625 C-14.7844679 39.32475919 -11.29972481 41.04701322 -6.9375 42.75 C-1.26597082 44.98402918 -1.26597082 44.98402918 -0.1875 46.0625 C-0.0625 49.0625 -0.0625 49.0625 -0.1875 52.0625 C-1.76407432 53.63907432 -3.30875887 53.38467152 -5.5 53.5 C-12.32779078 53.43142821 -17.48065062 50.58828338 -23.1875 47.0625 C-23.8784375 46.65257812 -24.569375 46.24265625 -25.28125 45.8203125 C-28.35839642 43.483423 -29.08420862 41.72897535 -29.6796875 37.88671875 C-30.12623182 25.65928454 -26.34110558 18.73270755 -18.5703125 9.58984375 C-13.06248156 3.74793127 -8.22698898 -0.10684401 0 0 Z " fill="#000000" transform="translate(69.1875,441.9375)"/>
<path d="M0 0 C0.886875 -0.01417969 1.77375 -0.02835937 2.6875 -0.04296875 C5 0.1875 5 0.1875 7 2.1875 C7.125 5.3125 7.125 5.3125 7 8.1875 C6.40832031 8.33445312 5.81664062 8.48140625 5.20703125 8.6328125 C-0.57026104 10.27269645 -3.68596055 11.92402558 -7 17.1875 C-10.4710699 23.89074025 -10.22883245 30.66737927 -10.0078125 38.02734375 C-10 41.1875 -10 41.1875 -11 43.1875 C-14.375 43.3125 -14.375 43.3125 -18 43.1875 C-20.57231221 40.61518779 -20.50282558 39.00650209 -21 35.4375 C-21.45637301 32.19399182 -21.95379214 29.3172243 -23.0546875 26.2265625 C-24.13022772 22.76883401 -24.198702 19.92389811 -24.125 16.3125 C-24.10695312 15.16007812 -24.08890625 14.00765625 -24.0703125 12.8203125 C-24.04710937 11.95148438 -24.02390625 11.08265625 -24 10.1875 C-21.03 10.1875 -18.06 10.1875 -15 10.1875 C-14.34 8.8675 -13.68 7.5475 -13 6.1875 C-8.94695526 2.10141413 -5.7511177 0.04179591 0 0 Z " fill="#000000" transform="translate(164,450.8125)"/>
</svg>
